<svg xmlns="http://www.w3.org/2000/svg" version="1.1" xmlns:xlink="http://www.w3.org/1999/xlink" xmlns:svgjs="http://svgjs.dev/svgjs" width="2000" height="767" viewBox="0 0 2000 767"><g transform="matrix(1,0,0,1,-1.2121212121212466,-1.4687693310331156)"><svg viewBox="0 0 396 152" data-background-color="#ffffff" preserveAspectRatio="xMidYMid meet" height="767" width="2000" xmlns="http://www.w3.org/2000/svg" xmlns:xlink="http://www.w3.org/1999/xlink"><g id="tight-bounds" transform="matrix(1,0,0,1,0.2400000000000091,0.29107293131295364)"><svg viewBox="0 0 395.52 151.4178541373741" height="151.4178541373741" width="395.52"><g><svg viewBox="0 0 525.0339892406209 200.99999999999997" height="151.4178541373741" width="395.52"><g><rect width="8.36196154327128" height="200.99999999999997" x="197.97792085583345" y="0" fill="#21272d" opacity="1" stroke-width="0" stroke="transparent" fill-opacity="1" class="rect-yte-0" data-fill-palette-color="primary" rx="1%" id="yte-0" data-palette-color="#21272d"></rect></g><g transform="matrix(1,0,0,1,228.22983408306098,0.4999999999999858)"><svg viewBox="0 0 296.80415515756005 200" height="200" width="296.80415515756005"><g id="textblocktransform"><svg viewBox="0 0 296.80415515756005 200" height="200" width="296.80415515756005" id="textblock"><g><svg viewBox="0 0 296.80415515756005 200" height="200" width="296.80415515756005"><g transform="matrix(1,0,0,1,0,0)"><svg width="296.80415515756005" viewBox="0.6633340740585177 -37.94 122.3866659259415 79.30349186633751" height="200" data-palette-color="#21272d"><svg></svg><svg></svg><g class="wordmark-text-0" data-fill-palette-color="primary" id="text-0"><path d="M1.66-25.29v0c-0.1-0.033-0.213-0.133-0.34-0.3-0.133-0.16-0.247-0.337-0.34-0.53-0.1-0.2-0.183-0.397-0.25-0.59-0.067-0.193-0.083-0.34-0.05-0.44v0c0.033-0.127 0.133-0.29 0.3-0.49 0.16-0.193 0.337-0.397 0.53-0.61 0.2-0.207 0.397-0.393 0.59-0.56 0.193-0.16 0.357-0.24 0.49-0.24v0c0.387-0.1 0.997-0.257 1.83-0.47 0.827-0.207 1.763-0.44 2.81-0.7 1.04-0.267 2.137-0.53 3.29-0.79 1.16-0.26 2.267-0.51 3.32-0.75 1.06-0.247 2.003-0.467 2.83-0.66 0.833-0.193 1.447-0.323 1.84-0.39v0c0.16-0.033 0.427-0.067 0.8-0.1 0.373-0.033 0.773-0.067 1.2-0.1 0.42-0.033 0.817-0.067 1.19-0.1 0.38-0.027 0.633-0.04 0.76-0.04v0c0 0.613-0.073 1.06-0.22 1.34-0.147 0.273-0.357 0.46-0.63 0.56-0.28 0.1-0.6 0.15-0.96 0.15-0.353 0-0.76 0.047-1.22 0.14v0c-0.32 0.1-0.857 0.247-1.61 0.44-0.747 0.2-1.577 0.42-2.49 0.66-0.913 0.247-1.88 0.5-2.9 0.76-1.027 0.26-2.003 0.52-2.93 0.78-0.927 0.26-1.757 0.497-2.49 0.71-0.733 0.213-1.28 0.367-1.64 0.46v0c-0.487 0.553-0.763 1.06-0.83 1.52-0.067 0.453-0.1 0.99-0.1 1.61v0c0 1.4 0.09 2.727 0.27 3.98 0.18 1.253 0.4 2.627 0.66 4.12v0c0.067 0 0.157 0.01 0.27 0.03 0.113 0.013 0.203 0.02 0.27 0.02v0c0.88 0 1.733-0.107 2.56-0.32 0.833-0.207 1.663-0.44 2.49-0.7 0.833-0.267 1.68-0.503 2.54-0.71 0.86-0.213 1.747-0.32 2.66-0.32v0c0.133 0 0.353 0.007 0.66 0.02 0.313 0.02 0.613 0.07 0.9 0.15 0.293 0.08 0.523 0.187 0.69 0.32 0.16 0.127 0.193 0.307 0.1 0.54v0l-12.6 3.8v13.38c-0.587 0-1.043-0.073-1.37-0.22-0.327-0.147-0.553-0.357-0.68-0.63-0.133-0.28-0.217-0.607-0.25-0.98-0.033-0.373-0.063-0.803-0.09-1.29v0c-0.067-0.553-0.15-1.417-0.25-2.59-0.093-1.173-0.2-2.5-0.32-3.98-0.113-1.48-0.233-3.033-0.36-4.66-0.133-1.627-0.263-3.183-0.39-4.67-0.133-1.48-0.247-2.807-0.34-3.98-0.1-1.167-0.167-2.027-0.2-2.58zM21.39-11.47v0c0-0.98 0.21-2.063 0.63-3.25 0.427-1.187 1.003-2.293 1.73-3.32 0.733-1.027 1.567-1.89 2.5-2.59 0.927-0.7 1.893-1.05 2.9-1.05v0c0.553 0 1.1 0.113 1.64 0.34 0.533 0.227 1.053 0.53 1.56 0.91 0.507 0.373 0.963 0.793 1.37 1.26 0.407 0.473 0.723 0.97 0.95 1.49 0.227 0.527 0.347 1.033 0.36 1.52 0.02 0.487-0.117 0.91-0.41 1.27v0l-10.3 1.9c-0.133 0.033-0.25 0.19-0.35 0.47-0.093 0.273-0.173 0.623-0.24 1.05-0.067 0.42-0.123 0.883-0.17 1.39-0.047 0.5-0.087 0.987-0.12 1.46-0.033 0.473-0.05 0.897-0.05 1.27 0 0.373 0 0.66 0 0.86v0c0 0.907 0.22 1.647 0.66 2.22 0.44 0.567 1 0.997 1.68 1.29 0.687 0.293 1.46 0.49 2.32 0.59 0.867 0.093 1.723 0.14 2.57 0.14 0.84 0 1.637-0.03 2.39-0.09 0.747-0.067 1.363-0.1 1.85-0.1v0c0 0.127-0.047 0.273-0.14 0.44-0.1 0.16-0.213 0.313-0.34 0.46-0.133 0.147-0.267 0.277-0.4 0.39-0.127 0.113-0.207 0.187-0.24 0.22v0c-0.26 0.067-0.66 0.157-1.2 0.27-0.533 0.113-1.103 0.22-1.71 0.32-0.6 0.093-1.16 0.173-1.68 0.24-0.52 0.067-0.877 0.1-1.07 0.1v0c-1.013 0.193-1.893 0.177-2.64-0.05-0.747-0.227-1.38-0.617-1.9-1.17-0.527-0.553-0.95-1.23-1.27-2.03-0.327-0.793-0.573-1.647-0.74-2.56-0.16-0.913-0.25-1.857-0.27-2.83-0.013-0.98 0.03-1.923 0.13-2.83zM28.47-19.82v0c-0.293 0-0.677 0.153-1.15 0.46-0.473 0.307-0.913 0.697-1.32 1.17-0.407 0.473-0.747 0.98-1.02 1.52-0.28 0.533-0.37 0.997-0.27 1.39v0c0.847 0.093 1.723 0.077 2.63-0.05 0.913-0.133 1.743-0.337 2.49-0.61 0.753-0.28 1.373-0.607 1.86-0.98 0.487-0.373 0.723-0.757 0.71-1.15-0.02-0.387-0.33-0.737-0.93-1.05-0.6-0.307-1.6-0.54-3-0.7zM40.09-3.96v0c0.587 0 1.13 0.117 1.63 0.35 0.507 0.227 1.003 0.477 1.49 0.75 0.493 0.28 0.99 0.527 1.49 0.74 0.507 0.207 1.053 0.31 1.64 0.31v0c0.68 0 1.387-0.12 2.12-0.36 0.733-0.247 1.41-0.59 2.03-1.03 0.62-0.44 1.123-0.977 1.51-1.61 0.393-0.633 0.59-1.323 0.59-2.07v0c0.033-0.233 0.04-0.51 0.02-0.83-0.013-0.327-0.12-0.663-0.32-1.01-0.193-0.34-0.517-0.663-0.97-0.97-0.46-0.313-1.12-0.55-1.98-0.71-0.86-0.16-1.943-0.25-3.25-0.27-1.3-0.013-2.91 0.11-4.83 0.37v0c-0.487 0-0.96-0.14-1.42-0.42-0.453-0.273-0.86-0.613-1.22-1.02-0.353-0.407-0.647-0.847-0.88-1.32-0.227-0.473-0.34-0.92-0.34-1.34v0c0-1.273 0.27-2.307 0.81-3.1 0.533-0.8 1.223-1.437 2.07-1.91 0.847-0.473 1.793-0.807 2.84-1 1.04-0.193 2.097-0.29 3.17-0.29v0c0.487 0 1.047 0.023 1.68 0.07 0.64 0.047 1.227 0.177 1.76 0.39 0.54 0.213 0.997 0.547 1.37 1 0.373 0.46 0.56 1.097 0.56 1.91v0c-0.067 0.553-0.157 0.887-0.27 1-0.113 0.113-0.277 0.08-0.49-0.1-0.207-0.18-0.457-0.433-0.75-0.76-0.293-0.327-0.643-0.643-1.05-0.95-0.407-0.307-0.897-0.543-1.47-0.71-0.567-0.16-1.21-0.16-1.93 0v0c-0.747 0-1.493 0.073-2.24 0.22-0.753 0.147-1.43 0.4-2.03 0.76-0.6 0.36-1.087 0.847-1.46 1.46-0.38 0.62-0.57 1.403-0.57 2.35v0c0 0.487 0.22 0.82 0.66 1 0.44 0.18 1.027 0.27 1.76 0.27 0.733 0 1.563-0.027 2.49-0.08 0.927-0.047 1.88-0.07 2.86-0.07 0.973 0 1.917 0.073 2.83 0.22 0.913 0.147 1.72 0.44 2.42 0.88 0.7 0.44 1.243 1.067 1.63 1.88 0.393 0.813 0.54 1.87 0.44 3.17v0c0 0.947-0.267 1.843-0.8 2.69-0.54 0.847-1.223 1.587-2.05 2.22-0.833 0.633-1.753 1.13-2.76 1.49-1.013 0.36-1.99 0.49-2.93 0.39v0c-0.393-0.033-0.923-0.14-1.59-0.32-0.667-0.18-1.317-0.43-1.95-0.75-0.633-0.327-1.18-0.727-1.64-1.2-0.453-0.473-0.68-1.037-0.68-1.69zM62.74-17.72v0c-0.293-0.1-0.69-0.143-1.19-0.13-0.507 0.02-1.043 0.053-1.61 0.1-0.573 0.047-1.12 0.103-1.64 0.17-0.52 0.067-0.96 0.1-1.32 0.1v0c-0.16 0-0.263-0.237-0.31-0.71-0.053-0.473-0.127-1.117-0.22-1.93v0l6.88-0.49c0.1-1.133 0.167-1.947 0.2-2.44 0.027-0.487 0.033-0.9 0.02-1.24-0.013-0.34-0.03-0.73-0.05-1.17-0.013-0.44-0.02-1.133-0.02-2.08v0c0.847-0.127 1.49-0.167 1.93-0.12 0.433 0.047 0.733 0.17 0.9 0.37 0.16 0.193 0.233 0.477 0.22 0.85-0.02 0.373-0.07 0.837-0.15 1.39-0.08 0.553-0.143 1.22-0.19 2-0.053 0.78-0.03 1.66 0.07 2.64v0l5.86-0.2v2.4c-0.26 0-0.667 0.017-1.22 0.05-0.553 0.027-1.147 0.057-1.78 0.09-0.64 0.033-1.227 0.067-1.76 0.1-0.54 0.033-0.94 0.1-1.2 0.2v0c-0.26 1.167-0.537 2.42-0.83 3.76-0.293 1.333-0.487 2.65-0.58 3.95-0.1 1.3-0.07 2.513 0.09 3.64 0.167 1.12 0.573 2.047 1.22 2.78 0.653 0.733 1.583 1.24 2.79 1.52 1.2 0.273 2.793 0.183 4.78-0.27v0c-0.06 0.487-0.247 0.883-0.56 1.19-0.307 0.313-0.663 0.56-1.07 0.74-0.407 0.173-0.84 0.303-1.3 0.39-0.453 0.08-0.86 0.12-1.22 0.12v0c-1.66 0-2.977-0.3-3.95-0.9-0.98-0.607-1.713-1.397-2.2-2.37-0.487-0.98-0.797-2.097-0.93-3.35-0.127-1.253-0.167-2.53-0.12-3.83 0.047-1.3 0.137-2.587 0.27-3.86 0.127-1.267 0.19-2.42 0.19-3.46zM78.37 0.1l-0.73-19.05c0.387 0 0.72-0.013 1-0.04 0.273-0.033 0.51 0.127 0.71 0.48v0c0.093 1.467 0.207 2.957 0.34 4.47 0.127 1.513 0.257 3.037 0.39 4.57 0.127 1.527 0.217 3.063 0.27 4.61 0.047 1.547 0.053 3.053 0.02 4.52v0c0 0.193-0.05 0.313-0.15 0.36-0.093 0.053-0.23 0.07-0.41 0.05-0.18-0.013-0.393-0.03-0.64-0.05-0.24-0.013-0.507 0.013-0.8 0.08zM74.8-27.69v0c0-0.227 0.017-0.477 0.05-0.75 0.033-0.28 0.107-0.533 0.22-0.76 0.113-0.227 0.26-0.423 0.44-0.59 0.18-0.16 0.4-0.24 0.66-0.24v0c0.393 0 0.783 0.017 1.17 0.05 0.393 0.033 0.77 0.107 1.13 0.22 0.353 0.113 0.647 0.293 0.88 0.54 0.227 0.24 0.34 0.59 0.34 1.05v0c0 0.78-0.293 1.47-0.88 2.07-0.587 0.6-1.303 0.9-2.15 0.9v0c-0.653 0-1.127-0.25-1.42-0.75-0.293-0.507-0.44-1.087-0.44-1.74zM77.64-27.44v0c-0.1 0-0.15 0.08-0.15 0.24 0 0.167 0.05 0.25 0.15 0.25v0c0.127 0 0.19-0.083 0.19-0.25 0-0.16-0.063-0.24-0.19-0.24zM93.55 0.24l-11.62-21.82 1.52-1.52 10.74 19.54 4.59-18.9c0.227 0.1 0.47 0.173 0.73 0.22 0.26 0.047 0.497 0.097 0.71 0.15 0.213 0.047 0.383 0.103 0.51 0.17 0.133 0.06 0.2 0.173 0.2 0.34v0c-0.427 2.08-0.827 4.033-1.2 5.86-0.373 1.82-0.77 3.593-1.19 5.32-0.427 1.727-0.883 3.46-1.37 5.2-0.487 1.74-1.057 3.553-1.71 5.44v0zM101.81-4.2v0c0-1.853 0.51-3.203 1.53-4.05 1.027-0.847 2.37-1.27 4.03-1.27v0c0.653 0 1.263 0.017 1.83 0.05 0.573 0.033 1.12 0.113 1.64 0.24 0.52 0.133 1.033 0.33 1.54 0.59 0.5 0.26 1.027 0.633 1.58 1.12v0c0-0.1 0.01-0.303 0.03-0.61 0.013-0.307 0.02-0.64 0.02-1 0-0.36 0-0.693 0-1 0-0.313 0-0.533 0-0.66v0c-0.033-0.587-0.05-1.343-0.05-2.27 0-0.927-0.07-1.88-0.21-2.86-0.147-0.973-0.44-1.9-0.88-2.78-0.44-0.88-1.15-1.547-2.13-2v0c-0.68 0-1.313 0.113-1.9 0.34-0.587 0.227-1.173 0.47-1.76 0.73-0.587 0.26-1.173 0.497-1.76 0.71-0.587 0.213-1.22 0.32-1.9 0.32v0c0-0.813 0.25-1.49 0.75-2.03 0.507-0.54 1.12-0.957 1.84-1.25 0.713-0.287 1.46-0.48 2.24-0.58 0.78-0.1 1.463-0.15 2.05-0.15v0c0.587 0.1 1.133 0.213 1.64 0.34 0.507 0.133 0.977 0.397 1.41 0.79 0.44 0.387 0.85 0.98 1.23 1.78 0.373 0.793 0.697 1.907 0.97 3.34 0.28 1.433 0.523 3.25 0.73 5.45 0.213 2.193 0.387 4.887 0.52 8.08v0c0.06 0.42-0.08 0.787-0.42 1.1-0.34 0.307-0.803 0.567-1.39 0.78-0.587 0.213-1.247 0.39-1.98 0.53-0.733 0.147-1.473 0.253-2.22 0.32-0.747 0.067-1.463 0.117-2.15 0.15-0.68 0.033-1.25 0.05-1.71 0.05v0c-0.587 0-1.18-0.1-1.78-0.3-0.6-0.193-1.153-0.477-1.66-0.85-0.507-0.373-0.913-0.83-1.22-1.37-0.307-0.533-0.46-1.127-0.46-1.78zM108.15-7.62v0c-1.627 0.46-2.763 1.007-3.41 1.64-0.653 0.633-0.94 1.243-0.86 1.83 0.08 0.587 0.463 1.117 1.15 1.59 0.68 0.467 1.51 0.773 2.49 0.92 0.973 0.147 2.03 0.067 3.17-0.24 1.14-0.307 2.23-0.917 3.27-1.83v0c-0.387-0.947-0.777-1.67-1.17-2.17-0.387-0.507-0.81-0.89-1.27-1.15-0.453-0.26-0.957-0.423-1.51-0.49-0.553-0.067-1.173-0.1-1.86-0.1zM119.92-37.94v0c0.46 0.067 0.86 0.19 1.2 0.37 0.34 0.18 0.607 0.497 0.8 0.95v0c0 0.62 0.027 1.473 0.08 2.56 0.047 1.093 0.093 2.357 0.14 3.79 0.053 1.427 0.11 2.973 0.17 4.64 0.067 1.66 0.133 3.333 0.2 5.02 0.067 1.693 0.123 3.37 0.17 5.03 0.047 1.66 0.097 3.207 0.15 4.64 0.047 1.433 0.087 2.703 0.12 3.81 0.033 1.107 0.067 1.953 0.1 2.54v0c0 0.067-0.01 0.18-0.03 0.34-0.013 0.167-0.03 0.363-0.05 0.59-0.013 0.227-0.03 0.447-0.05 0.66-0.013 0.207-0.02 0.36-0.02 0.46v0c-0.033 0.193-0.05 0.43-0.05 0.71 0 0.273-0.033 0.54-0.1 0.8-0.06 0.267-0.163 0.503-0.31 0.71-0.147 0.213-0.383 0.337-0.71 0.37v0l-0.83-1.03c-0.033-0.033-0.073-0.643-0.12-1.83-0.053-1.187-0.12-2.733-0.2-4.64-0.08-1.9-0.153-4.047-0.22-6.44-0.067-2.393-0.14-4.81-0.22-7.25-0.08-2.44-0.153-4.783-0.22-7.03-0.067-2.247-0.113-4.183-0.14-5.81v0c0-0.133 0.007-0.397 0.02-0.79 0.013-0.387 0.03-0.783 0.05-1.19 0.013-0.407 0.03-0.797 0.05-1.17 0.013-0.38 0.02-0.65 0.02-0.81z" fill="#21272d" fill-rule="nonzero" stroke="none" stroke-width="1" stroke-linecap="butt" stroke-linejoin="miter" stroke-miterlimit="10" stroke-dasharray="" stroke-dashoffset="0" font-family="none" font-weight="none" font-size="none" text-anchor="none" style="mix-blend-mode: normal" data-fill-palette-color="primary" opacity="1"></path><path transform="translate(0,41.23)" d="M1.17-32.81h1.86l1.85 30.95c2.9 0 5.807-0.187 8.72-0.56 2.913-0.373 5.9-0.723 8.96-1.05v0l0.19 1.61c-0.027 0-0.327 0.043-0.9 0.13-0.567 0.08-1.317 0.177-2.25 0.29-0.927 0.113-1.973 0.237-3.14 0.37-1.173 0.127-2.347 0.257-3.52 0.39-1.173 0.127-2.297 0.257-3.37 0.39-1.073 0.127-2 0.223-2.78 0.29v0c-0.033 0-0.117 0.007-0.25 0.02-0.127 0.02-0.273 0.03-0.44 0.03-0.16 0-0.32 0-0.48 0-0.167 0-0.3 0-0.4 0v0c-0.713 0-1.297-0.383-1.75-1.15-0.46-0.767-0.837-1.807-1.13-3.12-0.293-1.32-0.503-2.833-0.63-4.54-0.133-1.713-0.23-3.497-0.29-5.35-0.067-1.853-0.093-3.727-0.08-5.62 0.02-1.887 0.03-3.667 0.03-5.34 0-1.68-0.01-3.203-0.03-4.57-0.013-1.367-0.07-2.423-0.17-3.17zM27.93 0.1l-0.73-19.05c0.387 0 0.72-0.013 1-0.04 0.273-0.033 0.51 0.127 0.71 0.48v0c0.093 1.467 0.207 2.957 0.34 4.47 0.127 1.513 0.257 3.037 0.39 4.57 0.127 1.527 0.217 3.063 0.27 4.61 0.047 1.547 0.053 3.053 0.02 4.52v0c0 0.193-0.047 0.313-0.14 0.36-0.1 0.053-0.24 0.07-0.42 0.05-0.18-0.013-0.39-0.03-0.63-0.05-0.247-0.013-0.517 0.013-0.81 0.08zM24.37-27.69v0c0-0.227 0.013-0.477 0.04-0.75 0.033-0.28 0.107-0.533 0.22-0.76 0.113-0.227 0.26-0.423 0.44-0.59 0.18-0.16 0.4-0.24 0.66-0.24v0c0.393 0 0.783 0.017 1.17 0.05 0.393 0.033 0.77 0.107 1.13 0.22 0.353 0.113 0.647 0.293 0.88 0.54 0.227 0.24 0.34 0.59 0.34 1.05v0c0 0.78-0.293 1.47-0.88 2.07-0.587 0.6-1.303 0.9-2.15 0.9v0c-0.653 0-1.127-0.25-1.42-0.75-0.287-0.507-0.43-1.087-0.43-1.74zM27.2-27.44v0c-0.1 0-0.15 0.08-0.15 0.24 0 0.167 0.05 0.25 0.15 0.25v0c0.127 0 0.19-0.083 0.19-0.25 0-0.16-0.063-0.24-0.19-0.24zM34.52-3.96v0c0.587 0 1.133 0.117 1.64 0.35 0.5 0.227 0.997 0.477 1.49 0.75 0.487 0.28 0.983 0.527 1.49 0.74 0.5 0.207 1.043 0.31 1.63 0.31v0c0.687 0 1.397-0.12 2.13-0.36 0.727-0.247 1.4-0.59 2.02-1.03 0.62-0.44 1.127-0.977 1.52-1.61 0.387-0.633 0.58-1.323 0.58-2.07v0c0.033-0.233 0.043-0.51 0.03-0.83-0.02-0.327-0.127-0.663-0.32-1.01-0.193-0.34-0.52-0.663-0.98-0.97-0.453-0.313-1.113-0.55-1.98-0.71-0.86-0.16-1.94-0.25-3.24-0.27-1.307-0.013-2.92 0.11-4.84 0.37v0c-0.487 0-0.957-0.14-1.41-0.42-0.46-0.273-0.867-0.613-1.22-1.02-0.36-0.407-0.653-0.847-0.88-1.32-0.227-0.473-0.34-0.92-0.34-1.34v0c0-1.273 0.267-2.307 0.8-3.1 0.54-0.8 1.233-1.437 2.08-1.91 0.847-0.473 1.79-0.807 2.83-1 1.04-0.193 2.097-0.29 3.17-0.29v0c0.493 0 1.057 0.023 1.69 0.07 0.633 0.047 1.22 0.177 1.76 0.39 0.533 0.213 0.987 0.547 1.36 1 0.373 0.46 0.56 1.097 0.56 1.91v0c-0.06 0.553-0.147 0.887-0.26 1-0.12 0.113-0.283 0.08-0.49-0.1-0.213-0.18-0.467-0.433-0.76-0.76-0.293-0.327-0.643-0.643-1.05-0.95-0.407-0.307-0.893-0.543-1.46-0.71-0.573-0.16-1.217-0.16-1.93 0v0c-0.753 0-1.503 0.073-2.25 0.22-0.747 0.147-1.423 0.4-2.03 0.76-0.6 0.36-1.087 0.847-1.46 1.46-0.373 0.62-0.56 1.403-0.56 2.35v0c0 0.487 0.22 0.82 0.66 1 0.44 0.18 1.023 0.27 1.75 0.27 0.733 0 1.567-0.027 2.5-0.08 0.927-0.047 1.877-0.07 2.85-0.07 0.98 0 1.923 0.073 2.83 0.22 0.913 0.147 1.72 0.44 2.42 0.88 0.7 0.44 1.247 1.067 1.64 1.88 0.387 0.813 0.533 1.87 0.44 3.17v0c0 0.947-0.27 1.843-0.81 2.69-0.54 0.847-1.223 1.587-2.05 2.22-0.833 0.633-1.753 1.13-2.76 1.49-1.007 0.36-1.983 0.49-2.93 0.39v0c-0.393-0.033-0.923-0.14-1.59-0.32-0.667-0.18-1.317-0.43-1.95-0.75-0.633-0.327-1.177-0.727-1.63-1.2-0.46-0.473-0.69-1.037-0.69-1.69zM57.18-17.72v0c-0.293-0.1-0.693-0.143-1.2-0.13-0.507 0.02-1.043 0.053-1.61 0.1-0.567 0.047-1.113 0.103-1.64 0.17-0.52 0.067-0.957 0.1-1.31 0.1v0c-0.167 0-0.273-0.237-0.32-0.71-0.047-0.473-0.12-1.117-0.22-1.93v0l6.88-0.49c0.1-1.133 0.167-1.947 0.2-2.44 0.033-0.487 0.04-0.9 0.02-1.24-0.013-0.34-0.03-0.73-0.05-1.17-0.013-0.44-0.02-1.133-0.02-2.08v0c0.847-0.127 1.49-0.167 1.93-0.12 0.44 0.047 0.74 0.17 0.9 0.37 0.167 0.193 0.24 0.477 0.22 0.85-0.013 0.373-0.06 0.837-0.14 1.39-0.087 0.553-0.153 1.22-0.2 2-0.047 0.78-0.023 1.66 0.07 2.64v0l5.86-0.2v2.4c-0.26 0-0.667 0.017-1.22 0.05-0.553 0.027-1.147 0.057-1.78 0.09-0.633 0.033-1.22 0.067-1.76 0.1-0.533 0.033-0.93 0.1-1.19 0.2v0c-0.26 1.167-0.537 2.42-0.83 3.76-0.293 1.333-0.49 2.65-0.59 3.95-0.1 1.3-0.067 2.513 0.1 3.64 0.16 1.12 0.567 2.047 1.22 2.78 0.647 0.733 1.573 1.24 2.78 1.52 1.207 0.273 2.803 0.183 4.79-0.27v0c-0.067 0.487-0.257 0.883-0.57 1.19-0.307 0.313-0.663 0.56-1.07 0.74-0.407 0.173-0.837 0.303-1.29 0.39-0.46 0.08-0.867 0.12-1.22 0.12v0c-1.66 0-2.98-0.3-3.96-0.9-0.973-0.607-1.707-1.397-2.2-2.37-0.487-0.98-0.793-2.097-0.92-3.35-0.133-1.253-0.177-2.53-0.13-3.83 0.053-1.3 0.143-2.587 0.27-3.86 0.133-1.267 0.2-2.42 0.2-3.46zM70.07-11.47v0c0-0.98 0.21-2.063 0.63-3.25 0.427-1.187 1.007-2.293 1.74-3.32 0.733-1.027 1.563-1.89 2.49-2.59 0.927-0.7 1.893-1.05 2.9-1.05v0c0.553 0 1.1 0.113 1.64 0.34 0.533 0.227 1.053 0.53 1.56 0.91 0.507 0.373 0.963 0.793 1.37 1.26 0.407 0.473 0.723 0.97 0.95 1.49 0.227 0.527 0.35 1.033 0.37 1.52 0.013 0.487-0.127 0.91-0.42 1.27v0l-10.3 1.9c-0.133 0.033-0.247 0.19-0.34 0.47-0.1 0.273-0.183 0.623-0.25 1.05-0.067 0.42-0.123 0.883-0.17 1.39-0.047 0.5-0.087 0.987-0.12 1.46-0.033 0.473-0.05 0.897-0.05 1.27 0 0.373 0 0.66 0 0.86v0c0 0.907 0.22 1.647 0.66 2.22 0.44 0.567 1 0.997 1.68 1.29 0.687 0.293 1.46 0.49 2.32 0.59 0.867 0.093 1.723 0.14 2.57 0.14 0.847 0 1.643-0.03 2.39-0.09 0.747-0.067 1.363-0.1 1.85-0.1v0c0 0.127-0.047 0.273-0.14 0.44-0.1 0.16-0.213 0.313-0.34 0.46-0.133 0.147-0.263 0.277-0.39 0.39-0.133 0.113-0.217 0.187-0.25 0.22v0c-0.26 0.067-0.657 0.157-1.19 0.27-0.54 0.113-1.11 0.22-1.71 0.32-0.607 0.093-1.17 0.173-1.69 0.24-0.52 0.067-0.877 0.1-1.07 0.1v0c-1.013 0.193-1.893 0.177-2.64-0.05-0.747-0.227-1.38-0.617-1.9-1.17-0.52-0.553-0.943-1.23-1.27-2.03-0.327-0.793-0.573-1.647-0.74-2.56-0.16-0.913-0.247-1.857-0.26-2.83-0.02-0.98 0.02-1.923 0.12-2.83zM77.15-19.82v0c-0.293 0-0.677 0.153-1.15 0.46-0.473 0.307-0.913 0.697-1.32 1.17-0.407 0.473-0.747 0.98-1.02 1.52-0.28 0.533-0.37 0.997-0.27 1.39v0c0.847 0.093 1.727 0.077 2.64-0.05 0.907-0.133 1.737-0.337 2.49-0.61 0.747-0.28 1.363-0.607 1.85-0.98 0.487-0.373 0.723-0.757 0.71-1.15-0.02-0.387-0.33-0.737-0.93-1.05-0.6-0.307-1.6-0.54-3-0.7z" fill="#21272d" fill-rule="nonzero" stroke="none" stroke-width="1" stroke-linecap="butt" stroke-linejoin="miter" stroke-miterlimit="10" stroke-dasharray="" stroke-dashoffset="0" font-family="none" font-weight="none" font-size="none" text-anchor="none" style="mix-blend-mode: normal" data-fill-palette-color="primary" opacity="1"></path></g></svg></g></svg></g></svg></g></svg></g><g transform="matrix(1,0,0,1,0,6.412562419293792)"><svg viewBox="0 0 176.0879691718772 188.1748751614124" height="188.1748751614124" width="176.0879691718772"><g><svg xmlns="http://www.w3.org/2000/svg" xmlns:xlink="http://www.w3.org/1999/xlink" version="1.1" x="0" y="0" viewBox="7.05 5.4606123086601865 83.25 88.96438769133984" enable-background="new 0 0 100 100" xml:space="preserve" height="188.1748751614124" width="176.0879691718772" class="icon-icon-0" data-fill-palette-color="accent" id="icon-0"><path d="M33.6 21.4H85.1C88 21.4 90.3 19.1 90.3 16.2S88 11 85.1 11H33.6C30.7 11 28.4 13.3 28.4 16.2S30.7 21.4 33.6 21.4" fill="#6d28d9" data-fill-palette-color="accent"></path><path d="M85.1 34.8H33.6C30.7 34.8 28.4 37.1 28.4 40S30.7 45.2 33.6 45.2H85.1C88 45.2 90.3 42.9 90.3 40S88 34.8 85.1 34.8" fill="#6d28d9" data-fill-palette-color="accent"></path><path d="M85.1 58.7H33.6C30.7 58.7 28.4 61 28.4 63.9S30.7 69.1 33.6 69.1H85.1C88 69.1 90.3 66.8 90.3 63.9S88 58.7 85.1 58.7" fill="#6d28d9" data-fill-palette-color="accent"></path><path d="M85.1 82.5H33.6C30.7 82.5 28.4 84.8 28.4 87.7S30.7 92.9 33.6 92.9H85.1C88 92.9 90.3 90.6 90.3 87.7S88 82.5 85.1 82.5" fill="#6d28d9" data-fill-palette-color="accent"></path><path d="M24.3 7.8L21.6 5.6C21.3 5.4 20.9 5.4 20.7 5.7L13.3 14.8 10.4 12.2C10.1 12 9.7 12 9.5 12.2L7.2 14.8C7 15.1 7 15.5 7.2 15.7L13.4 21.3C13.7 21.5 14.1 21.5 14.3 21.2L16.5 18.5 24.5 8.6C24.7 8.5 24.6 8.1 24.3 7.8" fill="#6d28d9" data-fill-palette-color="accent"></path><path d="M18.9 87.7L22.2 84.4C22.5 84.1 22.5 83.5 22.2 83.1L20.3 81.2C20 80.9 19.4 80.9 19 81.2L15.7 84.5 12.4 81.2C12.1 80.9 11.5 80.9 11.1 81.2L9.2 83.1C8.9 83.4 8.9 84 9.2 84.4L12.5 87.7 9.2 91C8.9 91.3 8.9 91.9 9.2 92.3L11.1 94.2C11.4 94.5 12 94.5 12.4 94.2L15.7 90.9 19 94.2C19.3 94.5 19.9 94.5 20.3 94.2L22.2 92.3C22.5 92 22.5 91.4 22.2 91z" fill="#6d28d9" data-fill-palette-color="accent"></path><path d="M18.9 63.9L22.2 60.6C22.5 60.3 22.5 59.7 22.2 59.3L20.3 57.4C20 57.1 19.4 57.1 19 57.4L15.7 60.7 12.4 57.4C12.1 57.1 11.5 57.1 11.1 57.4L9.2 59.3C8.9 59.6 8.9 60.2 9.2 60.6L12.5 63.9 9.2 67.2C8.9 67.5 8.9 68.1 9.2 68.5L11.1 70.4C11.4 70.7 12 70.7 12.4 70.4L15.7 67.1 19 70.4C19.3 70.7 19.9 70.7 20.3 70.4L22.2 68.5C22.5 68.2 22.5 67.6 22.2 67.2z" fill="#6d28d9" data-fill-palette-color="accent"></path><path d="M18.9 39.1L22.2 35.8C22.5 35.5 22.5 34.9 22.2 34.5L20.3 32.6C20 32.3 19.4 32.3 19 32.6L15.7 35.9 12.4 32.6C12.1 32.3 11.5 32.3 11.1 32.6L9.2 34.5C8.9 34.8 8.9 35.4 9.2 35.8L12.5 39.1 9.2 42.4C8.9 42.7 8.9 43.3 9.2 43.7L11.1 45.6C11.4 45.9 12 45.9 12.4 45.6L15.7 42.3 19 45.6C19.3 45.9 19.9 45.9 20.3 45.6L22.2 43.7C22.5 43.4 22.5 42.8 22.2 42.4z" fill="#6d28d9" data-fill-palette-color="accent"></path></svg></g></svg></g></svg></g><defs></defs></svg><rect width="395.52" height="151.4178541373741" fill="none" stroke="none" visibility="hidden"></rect></g></svg></g></svg>